<svg xmlns="http://www.w3.org/2000/svg" width="84" height="83.993" viewBox="0 0 84 83.993">
  <g id="组_5" data-name="组 5" transform="translate(-594 -398)">
    <g id="组_6" data-name="组 6">
      <g id="组_1" data-name="组 1" transform="translate(594 398)">
        <path id="路径_1" data-name="路径 1" d="M76.487,48.763a38.741,38.741,0,0,0-4.308-27.911l6.674-6.674a1.232,1.232,0,0,0-.611-2.075l-7.173-1.549L68.681,8.165,67.132.992A1.232,1.232,0,0,0,65.056.381L58.439,7A38.712,38.712,0,0,0,0,40.307,38.292,38.292,0,0,0,4.26,57.978a1.232,1.232,0,1,0,2.192-1.126A36.253,36.253,0,0,1,38.71,4.061,36.15,36.15,0,0,1,56.638,8.8l-3.311,3.311a1.232,1.232,0,0,0-.333,1.131l.3,1.394a29.535,29.535,0,0,0-32.252,2.018,1.232,1.232,0,0,0,1.476,1.973,27.061,27.061,0,0,1,31.5-.63l.452,2.1-3.69,3.69A20.463,20.463,0,0,0,18.245,40.307,20.476,20.476,0,0,0,45,59.785c-.005.022-.009.044-.014.065q-.048.211-.092.423l-.018.087q-.1.514-.179,1.033c-.006.039-.011.077-.016.116q-.029.208-.054.417c0,.037-.009.075-.013.113-.02.174-.038.348-.053.522v0c-.014.168-.026.336-.036.5,0,.049-.005.1-.008.146q-.01.19-.017.381c0,.05,0,.1,0,.149,0,.171-.007.341-.007.512,0,.242.006.483.015.725,0,.03,0,.06,0,.09s0,.082.006.122q.016.341.044.682c0,.045.007.09.01.135.009.105.021.21.031.315.008.073.015.146.024.219.006.055.011.111.018.166A27.06,27.06,0,0,1,19.065,21.7a1.232,1.232,0,1,0-1.789-1.695A29.523,29.523,0,0,0,45.1,69.13a19.61,19.61,0,0,0,1.028,3l.021.047c.089.2.18.4.275.6.022.047.046.094.069.141q.1.2.2.4.085.166.174.33l.033.061c.31.569.646,1.126,1.011,1.664a36.3,36.3,0,0,1-39.258-14.8,1.232,1.232,0,0,0-2.042,1.38A38.759,38.759,0,0,0,49.57,77.471,19.748,19.748,0,1,0,76.487,48.763Zm-1.53-8.456a36.449,36.449,0,0,1-.666,6.936,19.523,19.523,0,0,0-6.407-2.406,29.781,29.781,0,0,0,.349-4.53,29.337,29.337,0,0,0-3.741-14.39l1.5.324a1.249,1.249,0,0,0,.142.021l.053,0c.021,0,.043,0,.065,0h.025l.055,0c.029,0,.057,0,.085-.009l.055-.008c.032-.006.064-.013.1-.022l.038-.01a1.25,1.25,0,0,0,.125-.045l.043-.02c.028-.013.056-.027.083-.042l.044-.026c.027-.017.053-.035.079-.053L67.017,26a1.185,1.185,0,0,0,.106-.094l3.251-3.251A36.174,36.174,0,0,1,74.956,40.307ZM55.414,28.487l3.726-3.726,2.017.436a26.883,26.883,0,0,1,4.611,15.11,27.327,27.327,0,0,1-.33,4.23l-.045,0q-.174-.01-.349-.017l-.179-.007h-.053c-.188-.005-.377-.009-.567-.009a19.881,19.881,0,0,0-3.711.348,19.566,19.566,0,0,0-1.981.487,20.46,20.46,0,0,0,.623-5.028A20.233,20.233,0,0,0,55.414,28.487Zm20.1-14.454-5.755,5.755-3.9,3.9-4.643-1,9.657-9.657ZM65.2,3.721l1,4.642-9.657,9.657-.219-1.015h0l-.783-3.627Zm2.341,6.789,1.182,1.182L57.872,22.544,40.747,39.669a.659.659,0,0,1-.933,0l-.25-.25a.669.669,0,0,1-.083-.1.658.658,0,0,1,.083-.832ZM37.614,40.931q.1.119.209.23l.25.25a3.123,3.123,0,0,0,4.417,0L46.6,37.3a8.442,8.442,0,1,1-4.575-4.759l-4.207,4.207a3.158,3.158,0,0,0-.392.477,3.127,3.127,0,0,0,.183,3.711Zm26.63,40.618A17.305,17.305,0,0,1,49.1,72.592c-.045-.083-.09-.165-.134-.248s-.1-.185-.145-.278q-.127-.252-.247-.507l-.048-.1A17.35,17.35,0,0,1,47.1,66.517c0-.028-.006-.056-.01-.085-.027-.216-.052-.433-.072-.65-.011-.125-.017-.25-.026-.375s-.019-.244-.024-.367q0-.02,0-.041c-.011-.248-.017-.5-.017-.743,0-.231.006-.462.015-.693,0-.072.008-.143.011-.214.009-.161.019-.322.032-.483.006-.08.014-.159.021-.238q.022-.236.051-.472c.009-.074.018-.148.028-.222q.037-.271.083-.541c.008-.046.014-.093.022-.139q.061-.346.136-.689c.007-.03.014-.059.021-.089q.065-.291.14-.58c.017-.067.036-.133.054-.2q.064-.235.135-.469c.022-.073.045-.146.068-.219.049-.153.1-.3.153-.456.024-.068.047-.136.071-.2q.1-.273.208-.542c.014-.034.026-.068.04-.1q.127-.311.267-.616c.035-.076.072-.151.107-.227.061-.128.122-.256.186-.383.045-.09.092-.18.139-.269q.087-.166.178-.33c.052-.094.1-.188.158-.281s.122-.207.184-.309.112-.187.17-.279.133-.2.2-.3c.056-.083.11-.166.166-.248l.062-.091c.064-.092.131-.182.2-.273l.076-.1q.146-.2.3-.391l.1-.131c.1-.122.193-.243.293-.362a1.232,1.232,0,0,0-.147-1.736l-.024-.019a1.231,1.231,0,0,0-1.712.165c-.036.042-.07.087-.1.13-.013.014-.026.027-.038.042-.116.141-.23.284-.342.428l0,0,0,.005-.006.009q-.439.565-.835,1.158l-.015.022-.014.022q-.177.267-.345.54l-.02.032-.04.067c-.048.08-.1.159-.144.24l-.005.009-.039.067q-.2.341-.384.688l-.022.04-.067.128-.034.067-.049.1c-.247.484-.477.978-.683,1.483A18,18,0,0,1,20.71,40.306,18,18,0,0,1,49.017,25.549l-5.145,5.145a10.916,10.916,0,1,0,4.6,4.736l5.176-5.176a18.04,18.04,0,0,1,1.981,16.218,19.784,19.784,0,0,0-2.57,1.5A1.231,1.231,0,0,0,52.523,49c0,.04,0,.079.007.119a1.23,1.23,0,0,0,.048.235c.012.039.026.077.042.115a1.2,1.2,0,0,0,.21.333l.026.028c.024.026.048.05.074.073l.032.028c.026.022.053.043.081.063l.03.021a1.287,1.287,0,0,0,.116.069h0a1.242,1.242,0,0,0,.128.057l.025.008c.035.012.07.023.106.032l.035.008c.034.008.069.014.1.019l.032,0a1.254,1.254,0,0,0,.129.008h.006a1.225,1.225,0,0,0,.166-.012l.029,0a1.219,1.219,0,0,0,.322-.1l.029-.014A1.21,1.21,0,0,0,54.453,50q.3-.206.61-.4l.133-.081q.244-.15.493-.293l.169-.094q.236-.131.475-.255l.178-.091q.244-.122.491-.236a17.221,17.221,0,0,1,7.241-1.587c.2,0,.4,0,.6.012l.25.011q.166.008.331.019c.106.007.212.014.318.024l.223.022c.1.009.19.019.285.03l.149.017c.119.015.237.032.356.049q.233.034.463.074l.145.026a17.293,17.293,0,0,1-3.12,34.3Z" transform="translate(0 -0.02)" fill="#6035d0"/>
      </g>
    </g>
  </g>
  <g id="组_4" data-name="组 4" transform="translate(52.87 57.941)">
    <g id="组_3" data-name="组 3">
      <path id="路径_2" data-name="路径 2" d="M343.968,342.031a3.531,3.531,0,0,0-4.993,0l-7.961,7.961-2.732-2.732a3.531,3.531,0,1,0-4.993,4.993l5.229,5.229a3.531,3.531,0,0,0,4.993,0l10.457-10.457a3.531,3.531,0,0,0,0-4.994Zm-1.743,3.251L331.768,355.74a1.059,1.059,0,0,1-.754.312,1.075,1.075,0,0,1-.754-.312l-5.229-5.229A1.067,1.067,0,0,1,326.539,349l3.6,3.6a1.232,1.232,0,0,0,1.743,0l8.832-8.832a1.067,1.067,0,1,1,1.508,1.509Z" transform="translate(-322.254 -340.997)" fill="#57ef9f"/>
    </g>
  </g>
</svg>
