<svg xmlns="http://www.w3.org/2000/svg" width="48" height="48" viewBox="0 0 48 48">
  <g id="star-outline" transform="translate(0 -9.973)" opacity="0.54">
    <path id="路径_31" data-name="路径 31" d="M11.138,57.973a3.076,3.076,0,0,1-1.875-.638,3.406,3.406,0,0,1-1.158-3.72l4.2-13.492L1.315,31.785A3.407,3.407,0,0,1,.157,28.064a3.2,3.2,0,0,1,3.031-2.3H16.771l4.2-13.49a3.147,3.147,0,0,1,6.062,0l4.2,13.49H44.812a3.2,3.2,0,0,1,3.031,2.3,3.408,3.408,0,0,1-1.156,3.721L35.7,40.123l4.2,13.491a3.406,3.406,0,0,1-1.157,3.722,3.125,3.125,0,0,1-3.748,0L24,49,13.011,57.337A3.077,3.077,0,0,1,11.138,57.973ZM3.188,28.617a.456.456,0,0,0-.433.329.486.486,0,0,0,.165.532l12.6,9.556L10.7,54.5a.487.487,0,0,0,.166.532.373.373,0,0,0,.535,0L24,45.471l12.594,9.557a.376.376,0,0,0,.536,0A.487.487,0,0,0,37.3,54.5L32.484,39.033l12.6-9.556a.488.488,0,0,0,.165-.532.458.458,0,0,0-.433-.329H29.244l-4.81-15.462a.466.466,0,0,0-.867,0l-4.81,15.462H3.188Z" transform="translate(0 0)" fill="#172735"/>
  </g>
</svg>
