
<svg xmlns="http://www.w3.org/2000/svg" width="48" height="48" viewBox="0 0 48 48">
  <g id="star" transform="translate(0 -9.973)" opacity="1">
    <path id="路径_31" data-name="路径 31" d="
    M47.2,30.427,34.7,39.94l4.777,15.392a2.08,2.08,0,0,1-.7,2.262,1.863,1.863,0,0,1-2.271,0L24,48.081,11.5,57.593a1.86,1.86,0,0,1-2.272,0,2.077,2.077,0,0,1-.7-2.26L13.3,39.939.8,30.427a2.076,2.076,0,0,1-.7-2.261,1.945,1.945,0,0,1,1.838-1.4H17.387l4.776-15.391a1.906,1.906,0,0,1,3.674,0l4.776,15.391H46.069a1.945,1.945,0,0,1,1.838,1.4A2.083,2.083,0,0,1,47.2,30.427Z"
    
    transform="translate(0 0)"
    />
  </g>
</svg>